<?xml version="1.0" standalone="no"?>
<!DOCTYPE svg PUBLIC "-//W3C//DTD SVG 20010904//EN"
 "http://www.w3.org/TR/2001/REC-SVG-20010904/DTD/svg10.dtd">
<svg version="1.0" xmlns="http://www.w3.org/2000/svg"
 width="500.000000pt" height="500.000000pt" viewBox="0 0 500.000000 500.000000"
 preserveAspectRatio="xMidYMid meet">

<g transform="translate(0.000000,500.000000) scale(0.100000,-0.100000)"
fill="#000000" stroke="none">
<path d="M2257 4484 c-193 -24 -482 -108 -610 -176 l-25 -13 55 -95 c30 -52
58 -99 63 -103 4 -5 52 9 106 31 208 82 416 122 647 122 383 0 716 -106 1032
-329 105 -74 316 -284 392 -391 387 -544 441 -1235 143 -1820 -126 -246 -299
-455 -505 -607 -36 -26 -65 -51 -65 -55 0 -17 109 -193 121 -196 32 -6 266
193 382 326 392 446 568 1038 480 1617 -131 873 -799 1542 -1678 1681 -137 22
-399 26 -538 8z"/>
<path d="M1294 4093 c-420 -316 -701 -796 -775 -1323 -17 -120 -17 -417 -1
-535 83 -583 399 -1082 892 -1408 290 -191 618 -297 1005 -323 266 -17 647 57
904 177 82 38 83 39 69 61 -8 13 -36 60 -62 104 l-46 82 -108 -44 c-214 -86
-378 -122 -603 -131 -516 -21 -983 169 -1340 545 -229 240 -381 534 -451 867
-20 97 -23 138 -23 340 1 202 3 243 23 335 94 428 327 804 650 1048 45 35 82
68 82 75 -1 18 -103 190 -116 194 -6 2 -51 -27 -100 -64z"/>
<path d="M2320 3736 c-109 -17 -320 -78 -320 -93 0 -6 110 -196 119 -205 4 -4
30 1 57 12 149 56 413 66 579 20 171 -46 320 -134 451 -264 183 -182 280 -403
291 -661 13 -290 -84 -539 -288 -747 l-96 -97 56 -100 c31 -56 61 -101 66
-101 6 0 41 27 79 59 300 255 469 675 426 1060 -61 553 -440 980 -980 1102
-111 25 -327 33 -440 15z"/>
<path d="M1699 3457 c-238 -198 -399 -494 -439 -809 -14 -115 -13 -203 6 -326
91 -613 605 -1062 1219 -1065 158 -1 257 14 395 59 154 49 150 41 80 158 -33
54 -61 100 -62 102 -2 2 -34 -8 -71 -22 -336 -121 -742 -36 -1006 210 -134
125 -247 312 -292 481 -26 100 -36 308 -20 414 35 222 174 473 330 596 28 22
50 44 51 49 0 12 -113 206 -120 206 -4 0 -35 -24 -71 -53z"/>
</g>
</svg>
